<svg width="1440" height="2671" viewBox="0 0 1440 2671" fill="none" xmlns="http://www.w3.org/2000/svg">
<rect x="167.132" y="852.32" width="143.061" height="680.972" rx="71.5306" transform="rotate(45 167.132 852.32)" fill="#6DB8FF" fill-opacity="0.04"/>
<rect x="138.52" y="628" width="143.061" height="680.972" rx="71.5306" transform="rotate(45 138.52 628)" fill="#6DB8FF" fill-opacity="0.04"/>
<rect x="529.935" y="751.035" width="143.061" height="680.972" rx="71.5306" transform="rotate(45 529.935 751.035)" fill="#6DB8FF" fill-opacity="0.04"/>
<rect x="167.132" y="2088.32" width="143.061" height="680.972" rx="71.5306" transform="rotate(45 167.132 2088.32)" fill="#6DB8FF" fill-opacity="0.04"/>
<rect x="138.52" y="1864" width="143.061" height="680.972" rx="71.5306" transform="rotate(45 138.52 1864)" fill="#6DB8FF" fill-opacity="0.04"/>
<rect x="529.935" y="1987.04" width="143.061" height="680.972" rx="71.5306" transform="rotate(45 529.935 1987.04)" fill="#6DB8FF" fill-opacity="0.04"/>
<rect x="1447.13" y="1627.32" width="143.061" height="680.972" rx="71.5306" transform="rotate(45 1447.13 1627.32)" fill="#6DB8FF" fill-opacity="0.04"/>
<rect x="1418.52" y="1403" width="143.061" height="680.972" rx="71.5306" transform="rotate(45 1418.52 1403)" fill="#6DB8FF" fill-opacity="0.04"/>
<rect x="1809.94" y="1526.04" width="143.061" height="680.972" rx="71.5306" transform="rotate(45 1809.94 1526.04)" fill="#6DB8FF" fill-opacity="0.04"/>
<rect x="1562.13" y="224.32" width="143.061" height="680.972" rx="71.5306" transform="rotate(45 1562.13 224.32)" fill="#6DB8FF" fill-opacity="0.04"/>
<rect x="1533.52" width="143.061" height="680.972" rx="71.5306" transform="rotate(45 1533.52 0)" fill="#6DB8FF" fill-opacity="0.04"/>
</svg>
