<svg width="25" height="25" viewBox="0 0 25 25" fill="none" xmlns="http://www.w3.org/2000/svg">
<rect width="24" height="24" transform="translate(0.5 0.527466)" fill="white" fill-opacity="0.01"/>
<path fill-rule="evenodd" clip-rule="evenodd" d="M4.51977 19.7575C4.48666 19.9195 4.49423 20.0871 4.54181 20.2455C4.58939 20.4038 4.67549 20.5479 4.79241 20.6648C4.90932 20.7817 5.0534 20.8678 5.21175 20.9154C5.3701 20.963 5.53777 20.9706 5.69977 20.9375L9.50977 20.1575L5.29977 15.9475L4.51977 19.7575ZM20.3438 7.23447L18.2238 5.11247C18.0379 4.92655 17.8171 4.77916 17.5741 4.67878C17.3311 4.57839 17.0707 4.52697 16.8078 4.52747C16.2958 4.52747 15.7838 4.72247 15.3928 5.11247L5.63577 14.8705L10.5858 19.8205L20.3428 10.0625C20.7177 9.68741 20.9283 9.1788 20.9283 8.64847C20.9283 8.11814 20.7177 7.60952 20.3428 7.23447H20.3438Z" fill="#A5ADBA"/>
</svg>
