<svg width="48" height="48" viewBox="0 0 48 48" fill="none" xmlns="http://www.w3.org/2000/svg">
<circle cx="24" cy="24" r="24" fill="#5243AA"/>
<path d="M22.4245 32.1227H21.3225C21.2221 32.1227 21.1258 32.0828 21.0548 32.0118C20.9837 31.9408 20.9438 31.8445 20.9438 31.744C20.9438 31.6436 20.9837 31.5473 21.0548 31.4763C21.1258 31.4053 21.2221 31.3654 21.3225 31.3654H22.4245C22.5249 31.3654 22.6213 31.4053 22.6923 31.4763C22.7633 31.5473 22.8032 31.6436 22.8032 31.744C22.8032 31.8445 22.7633 31.9408 22.6923 32.0118C22.6213 32.0828 22.5249 32.1227 22.4245 32.1227Z" fill="#FAFBFC"/>
<path d="M29.5855 32.1226H28.8508C28.7504 32.1226 28.6541 32.0827 28.583 32.0117C28.512 31.9407 28.4721 31.8444 28.4721 31.7439C28.4721 31.6435 28.512 31.5472 28.583 31.4761C28.6541 31.4051 28.7504 31.3652 28.8508 31.3652H29.2068V28.6993C29.2101 28.2064 29.0813 27.7217 28.8338 27.2955C28.5918 26.8766 28.2467 26.5266 27.8313 26.2786C27.416 26.0307 26.9441 25.8931 26.4606 25.8789C25.6332 26.3303 24.7057 26.5669 23.7632 26.5669C22.8207 26.5669 21.8932 26.3303 21.0658 25.8789C20.5821 25.8931 20.1099 26.0305 19.6941 26.278C19.2782 26.5256 18.9323 26.8751 18.6892 27.2936C18.4415 27.7202 18.3126 28.2053 18.3158 28.6985V31.3645H18.6718C18.7722 31.3645 18.8685 31.4044 18.9396 31.4754C19.0106 31.5464 19.0505 31.6427 19.0505 31.7432C19.0505 31.8436 19.0106 31.9399 18.9396 32.0109C18.8685 32.0819 18.7722 32.1218 18.6718 32.1218H17.9371C17.8367 32.1218 17.7404 32.0819 17.6694 32.0109C17.5983 31.9399 17.5585 31.8436 17.5585 31.7432V28.6993C17.5569 28.073 17.7209 27.4575 18.0337 26.9149C18.3489 26.3702 18.8016 25.9177 19.3465 25.6029C19.8915 25.288 20.5095 25.1217 21.1389 25.1207C21.218 25.1208 21.296 25.1399 21.3661 25.1764C22.0972 25.5919 22.9238 25.8103 23.7647 25.8103C24.6056 25.8103 25.4322 25.5919 26.1633 25.1764C26.2227 25.1404 26.2908 25.1214 26.3602 25.1215C26.9937 25.1193 27.6165 25.284 28.166 25.5992C28.7156 25.9143 29.1724 26.3686 29.4904 26.9164C29.803 27.4588 29.9668 28.0741 29.9653 28.7001V31.7447C29.9652 31.7944 29.9553 31.8437 29.9361 31.8896C29.917 31.9356 29.889 31.9773 29.8537 32.0124C29.8184 32.0475 29.7766 32.0753 29.7306 32.0942C29.6845 32.1131 29.6352 32.1228 29.5855 32.1226Z" fill="#FAFBFC"/>
<path d="M26.2 32.1227H25.0753C24.9749 32.1227 24.8786 32.0828 24.8075 32.0118C24.7365 31.9408 24.6966 31.8445 24.6966 31.744C24.6966 31.6436 24.7365 31.5473 24.8075 31.4763C24.8786 31.4053 24.9749 31.3654 25.0753 31.3654H26.2C26.3004 31.3654 26.3968 31.4053 26.4678 31.4763C26.5388 31.5473 26.5787 31.6436 26.5787 31.744C26.5787 31.8445 26.5388 31.9408 26.4678 32.0118C26.3968 32.0828 26.3004 32.1227 26.2 32.1227Z" fill="#FAFBFC"/>
<path d="M36.6366 32.1227H28.8509C28.7504 32.1227 28.6541 32.0828 28.5831 32.0118C28.5121 31.9408 28.4722 31.8445 28.4722 31.744C28.4722 31.6436 28.5121 31.5473 28.5831 31.4762C28.6541 31.4052 28.7504 31.3653 28.8509 31.3653H36.2579V29.3924C36.2577 28.8503 36.0477 28.3293 35.672 27.9385C35.2962 27.5478 34.7839 27.3175 34.2422 27.296C33.598 27.6547 32.8714 27.8395 32.1341 27.8322C31.3979 27.8409 30.6724 27.6562 30.0301 27.2964C29.7815 27.3055 29.5365 27.3591 29.3068 27.4547C29.2608 27.4747 29.2112 27.4853 29.161 27.486C29.1108 27.4867 29.0609 27.4774 29.0144 27.4586C28.9678 27.4398 28.9254 27.412 28.8897 27.3767C28.854 27.3414 28.8256 27.2993 28.8063 27.253C28.787 27.2066 28.7771 27.1569 28.7772 27.1067C28.7773 27.0565 28.7874 27.0068 28.8069 26.9605C28.8263 26.9142 28.8548 26.8723 28.8907 26.8371C28.9265 26.8019 28.969 26.7742 29.0156 26.7556C29.3604 26.6113 29.7305 26.5371 30.1043 26.5371C30.1836 26.5369 30.2616 26.5562 30.3315 26.5935C30.8847 26.8992 31.5064 27.0595 32.1384 27.0595C32.7704 27.0595 33.3921 26.8992 33.9453 26.5935C34.0047 26.5572 34.073 26.5379 34.1426 26.5379C34.5188 26.5364 34.8915 26.6091 35.2395 26.7518C35.5875 26.8945 35.904 27.1044 36.1708 27.3695C36.4376 27.6346 36.6496 27.9498 36.7945 28.2969C36.9394 28.644 37.0144 29.0162 37.0153 29.3924V31.744C37.0153 31.8445 36.9754 31.9408 36.9044 32.0118C36.8334 32.0828 36.7371 32.1227 36.6366 32.1227Z" fill="#FAFBFC"/>
<path d="M18.6718 32.1227H10.886C10.7856 32.1227 10.6893 32.0828 10.6183 32.0118C10.5473 31.9408 10.5074 31.8445 10.5074 31.744V29.3924C10.5077 28.6359 10.8081 27.9104 11.3426 27.3751C11.8772 26.8398 12.6023 26.5384 13.3588 26.5371C13.4382 26.5368 13.5163 26.5565 13.5861 26.5943C14.1391 26.8997 14.7606 27.0599 15.3924 27.0599C16.0242 27.0599 16.6456 26.8997 17.1987 26.5943C17.2582 26.5579 17.3266 26.5386 17.3964 26.5386C17.7778 26.5363 18.1557 26.6106 18.5078 26.7571C18.5545 26.7757 18.5969 26.8034 18.6328 26.8386C18.6686 26.8738 18.6971 26.9157 18.7166 26.962C18.736 27.0083 18.7461 27.058 18.7462 27.1082C18.7463 27.1584 18.7364 27.2081 18.7171 27.2545C18.6978 27.3008 18.6694 27.3429 18.6337 27.3782C18.598 27.4135 18.5556 27.4413 18.5091 27.4601C18.4625 27.4789 18.4127 27.4882 18.3624 27.4875C18.3122 27.4868 18.2627 27.4762 18.2166 27.4562C17.9882 27.3606 17.7445 27.3068 17.4971 27.2975C16.8476 27.6387 16.1249 27.817 15.3912 27.817C14.6576 27.817 13.9349 27.6387 13.2854 27.2975C12.7434 27.3187 12.2306 27.5485 11.854 27.9389C11.4775 28.3292 11.2664 28.85 11.2647 29.3924V31.3653H18.6718C18.7722 31.3653 18.8685 31.4052 18.9396 31.4763C19.0106 31.5473 19.0505 31.6436 19.0505 31.744C19.0505 31.8445 19.0106 31.9408 18.9396 32.0118C18.8685 32.0828 18.7722 32.1227 18.6718 32.1227Z" fill="#FAFBFC"/>
<path d="M23.8196 24.4198C23.2161 24.42 22.622 24.2712 22.0899 23.9865C21.5579 23.7019 21.1043 23.2903 20.7696 22.7882C20.4349 22.2862 20.2293 21.7092 20.1712 21.1086C20.1131 20.508 20.2042 19.9023 20.4364 19.3454C20.4547 19.2984 20.4822 19.2556 20.5173 19.2194C20.5524 19.1832 20.5943 19.1543 20.6407 19.1346C20.6871 19.1148 20.7369 19.1045 20.7874 19.1043C20.8378 19.104 20.8877 19.1138 20.9343 19.1331C20.9808 19.1524 21.0231 19.1809 21.0585 19.2167C21.094 19.2526 21.1219 19.2951 21.1407 19.3419C21.1594 19.3887 21.1687 19.4388 21.1678 19.4892C21.167 19.5396 21.1561 19.5893 21.1358 19.6355C20.97 20.0325 20.8944 20.4613 20.9144 20.8911C20.9344 21.3209 21.0495 21.7409 21.2514 22.1208C21.4533 22.5007 21.7369 22.8311 22.0819 23.0882C22.4269 23.3453 22.8247 23.5226 23.2465 23.6073C23.6683 23.6921 24.1037 23.6823 24.5212 23.5785C24.9387 23.4747 25.328 23.2795 25.661 23.0071C25.994 22.7347 26.2625 22.3918 26.4469 22.0031C26.6314 21.6144 26.7274 21.1896 26.7279 20.7594C26.7279 20.664 26.7279 20.5701 26.7316 20.4788C26.7347 20.3379 26.7373 20.1982 26.7316 20.0528C26.73 20.003 26.7381 19.9535 26.7555 19.9069C26.773 19.8603 26.7995 19.8176 26.8334 19.7812C26.8674 19.7449 26.9082 19.7156 26.9535 19.695C26.9988 19.6744 27.0477 19.6629 27.0975 19.6612C27.1472 19.6595 27.1968 19.6676 27.2433 19.6851C27.2899 19.7026 27.3326 19.7291 27.369 19.763C27.4054 19.797 27.4347 19.8378 27.4553 19.8831C27.4758 19.9284 27.4873 19.9773 27.489 20.027C27.4943 20.1864 27.4917 20.3394 27.489 20.4939C27.4871 20.5814 27.4852 20.6693 27.4852 20.759C27.4833 21.7302 27.0963 22.6609 26.4092 23.3472C25.722 24.0334 24.7907 24.4192 23.8196 24.4198Z" fill="#FAFBFC"/>
<path d="M27.1112 20.4168C27.0355 20.4169 26.9616 20.3943 26.8989 20.352C26.8362 20.3097 26.7876 20.2495 26.7594 20.1793C26.6242 19.8419 26.1819 18.9797 25.6411 18.6604C25.0352 19.1054 23.0998 20.3732 21.2177 20.0067C20.1547 19.7991 19.2985 19.1133 18.6733 17.9686C18.637 17.9022 18.6215 17.8264 18.6287 17.7511C18.6358 17.6758 18.6654 17.6043 18.7136 17.546C18.7618 17.4876 18.8263 17.445 18.8989 17.4237C18.9715 17.4024 19.0488 17.4033 19.1209 17.4263C19.4855 17.5008 19.8635 17.4731 20.2132 17.3461C20.563 17.2191 20.8708 16.9979 21.1026 16.7068C21.1783 16.6311 22.6105 15.2678 24.1836 15.4113C24.5387 15.4478 24.8824 15.5578 25.1927 15.7342C25.5031 15.9106 25.7734 16.1496 25.9865 16.4361C26.2778 16.4155 26.5699 16.4618 26.8405 16.5714C27.1112 16.681 27.3532 16.851 27.5482 17.0685C28.0594 17.7156 28.0306 18.7619 27.4626 20.1793C27.4344 20.2495 27.3859 20.3096 27.3232 20.3519C27.2606 20.3942 27.1868 20.4168 27.1112 20.4168ZM19.7389 18.2204C20.1333 18.7566 20.7116 19.1284 21.3631 19.2648C23.2406 19.6337 25.3314 17.947 25.3522 17.93C25.4022 17.889 25.4619 17.8616 25.5255 17.8503C25.5892 17.8389 25.6546 17.8441 25.7157 17.8652C26.2762 18.1145 26.74 18.54 27.0366 19.077C27.2206 18.3715 27.1945 17.8489 26.9559 17.5441C26.6121 17.1052 25.8714 17.2033 25.8638 17.2033C25.7952 17.2132 25.7252 17.2041 25.6615 17.177C25.5977 17.1499 25.5426 17.1058 25.5021 17.0495C25.3521 16.8076 25.1496 16.6026 24.9095 16.4497C24.6694 16.2967 24.398 16.1998 24.1154 16.1661C22.8881 16.0551 21.6539 17.2264 21.6426 17.2373C21.1566 17.7955 20.4755 18.1467 19.7389 18.2189V18.2204Z" fill="#FAFBFC"/>
<path d="M32.1795 25.8996C31.6988 25.9002 31.2253 25.782 30.8013 25.5555C30.3773 25.3289 30.0159 25.001 29.7492 24.601C29.4826 24.201 29.319 23.7413 29.273 23.2627C29.227 22.7842 29.3 22.3017 29.4855 21.8582C29.5036 21.8109 29.5309 21.7677 29.5659 21.7311C29.6009 21.6945 29.643 21.6653 29.6895 21.6452C29.736 21.6252 29.786 21.6146 29.8367 21.6143C29.8874 21.6139 29.9376 21.6237 29.9844 21.6431C30.0312 21.6625 30.0736 21.691 30.1092 21.7271C30.1447 21.7632 30.1727 21.806 30.1914 21.8531C30.2101 21.9002 30.2192 21.9505 30.218 22.0012C30.2169 22.0518 30.2057 22.1017 30.185 22.1479C30.0617 22.443 30.0055 22.7617 30.0203 23.0812C30.0351 23.4006 30.1206 23.7128 30.2706 23.9951C30.4207 24.2775 30.6315 24.5231 30.8879 24.7142C31.1443 24.9053 31.4399 25.0371 31.7534 25.1001C32.0669 25.1632 32.3904 25.1559 32.7008 25.0788C33.0111 25.0017 33.3005 24.8566 33.548 24.6542C33.7955 24.4518 33.995 24.1969 34.1322 23.908C34.2693 23.6192 34.3406 23.3035 34.341 22.9837C34.341 22.908 34.341 22.8371 34.3441 22.7652C34.3463 22.6576 34.3486 22.5516 34.3441 22.4407C34.3423 22.391 34.3504 22.3414 34.3679 22.2948C34.3853 22.2482 34.4117 22.2055 34.4457 22.1692C34.4796 22.1328 34.5204 22.1035 34.5656 22.0829C34.6109 22.0623 34.6598 22.0508 34.7095 22.0491C34.7595 22.0463 34.8095 22.0536 34.8565 22.0706C34.9036 22.0877 34.9467 22.1141 34.9833 22.1482C35.0199 22.1824 35.0492 22.2236 35.0694 22.2693C35.0896 22.3151 35.1004 22.3645 35.101 22.4145C35.1052 22.5395 35.101 22.6592 35.101 22.7803C35.101 22.847 35.098 22.9148 35.098 22.9837C35.0967 23.7571 34.7887 24.4984 34.2416 25.045C33.6945 25.5916 32.9529 25.899 32.1795 25.8996Z" fill="#FAFBFC"/>
<path d="M34.7231 22.806C34.6475 22.8061 34.5736 22.7834 34.511 22.7411C34.4484 22.6988 34.3998 22.6387 34.3716 22.5686C34.2035 22.1439 33.9355 21.7659 33.5904 21.4666C33.0659 21.843 31.5944 22.7689 30.152 22.4891C29.7133 22.3917 29.3027 22.1952 28.9517 21.9146C28.6007 21.6341 28.3185 21.277 28.1267 20.8706C28.0905 20.8042 28.0749 20.7284 28.0821 20.6531C28.0893 20.5778 28.1189 20.5063 28.167 20.448C28.2152 20.3896 28.2797 20.347 28.3523 20.3257C28.4249 20.3044 28.5023 20.3053 28.5744 20.3283C28.8406 20.3803 29.116 20.358 29.3703 20.2638C29.6247 20.1696 29.8482 20.0072 30.0164 19.7944C30.0796 19.733 31.2153 18.6504 32.4688 18.7662C32.7478 18.7942 33.0182 18.8788 33.2634 19.0149C33.5086 19.151 33.7235 19.3357 33.8949 19.5577C34.1263 19.5471 34.3572 19.5886 34.5705 19.679C34.7839 19.7694 34.9742 19.9066 35.1275 20.0803C35.5441 20.6063 35.5251 21.4435 35.0737 22.5697C35.0456 22.6398 34.9971 22.6999 34.9345 22.7422C34.872 22.7845 34.7982 22.8071 34.7227 22.8072L34.7231 22.806ZM29.1905 21.0876C29.4738 21.4263 29.8643 21.658 30.2974 21.7442C31.7114 22.0199 33.2939 20.7433 33.3094 20.7305C33.3595 20.6896 33.4191 20.6621 33.4828 20.6508C33.5464 20.6394 33.6119 20.6446 33.673 20.6657C34.0649 20.8301 34.3973 21.1102 34.6257 21.4685C34.6745 21.3176 34.6918 21.1583 34.6763 21.0004C34.6609 20.8426 34.6131 20.6896 34.536 20.551C34.3054 20.256 33.7764 20.32 33.771 20.3204C33.7026 20.3296 33.6329 20.3202 33.5693 20.2932C33.5057 20.2661 33.4506 20.2224 33.4098 20.1666C33.3008 19.9899 33.1535 19.84 32.9787 19.7279C32.804 19.6158 32.6063 19.5444 32.4002 19.5191C31.6428 19.4513 30.8135 20.0765 30.5568 20.3234C30.2022 20.7269 29.7199 20.9967 29.1905 21.0876Z" fill="#FAFBFC"/>
<path d="M15.4333 25.8998C14.9526 25.9004 14.4791 25.7822 14.0551 25.5557C13.6311 25.3291 13.2697 25.0012 13.003 24.6012C12.7364 24.2012 12.5728 23.7415 12.5268 23.263C12.4808 22.7844 12.5538 22.3019 12.7394 21.8585C12.7797 21.7686 12.8535 21.6979 12.945 21.6615C13.0366 21.6251 13.1387 21.6259 13.2298 21.6636C13.3208 21.7013 13.3936 21.773 13.4326 21.8635C13.4716 21.9539 13.4738 22.0561 13.4388 22.1481C13.3155 22.4432 13.2593 22.7619 13.2741 23.0814C13.2889 23.4008 13.3744 23.713 13.5244 23.9954C13.6745 24.2777 13.8853 24.5233 14.1417 24.7144C14.3981 24.9055 14.6937 25.0373 15.0072 25.1004C15.3207 25.1634 15.6442 25.1561 15.9546 25.079C16.2649 25.0019 16.5543 24.8569 16.8018 24.6544C17.0493 24.452 17.2488 24.1971 17.386 23.9082C17.5231 23.6194 17.5944 23.3037 17.5948 22.9839C17.5948 22.9082 17.5948 22.8374 17.5979 22.7654C17.5979 22.6579 17.6024 22.5518 17.5979 22.4409C17.5962 22.3912 17.6042 22.3416 17.6217 22.295C17.6391 22.2484 17.6655 22.2058 17.6995 22.1694C17.7334 22.133 17.7742 22.1037 17.8194 22.0831C17.8647 22.0625 17.9136 22.051 17.9633 22.0493C18.0132 22.0469 18.063 22.0545 18.1099 22.0716C18.1568 22.0888 18.1998 22.1152 18.2363 22.1493C18.2728 22.1833 18.3021 22.2244 18.3225 22.27C18.3428 22.3156 18.3539 22.3648 18.3549 22.4147C18.359 22.5397 18.3549 22.6594 18.3549 22.7805C18.3549 22.8472 18.3518 22.915 18.3518 22.9839C18.3505 23.7573 18.0425 24.4986 17.4954 25.0452C16.9483 25.5919 16.2067 25.8992 15.4333 25.8998Z" fill="#FAFBFC"/>
<path d="M17.9769 22.8062C17.9013 22.8062 17.8275 22.7836 17.7649 22.7413C17.7022 22.699 17.6537 22.6389 17.6255 22.5688C17.4575 22.144 17.1895 21.766 16.8443 21.4668C16.3198 21.8432 14.846 22.7683 13.4062 22.4893C12.9674 22.392 12.5568 22.1955 12.2057 21.915C11.8546 21.6344 11.5723 21.2772 11.3806 20.8708C11.3443 20.8044 11.3288 20.7286 11.336 20.6533C11.3431 20.5779 11.3727 20.5065 11.4209 20.4481C11.4691 20.3898 11.5336 20.3472 11.6062 20.3259C11.6788 20.3045 11.7562 20.3054 11.8282 20.3285C12.0948 20.3806 12.3706 20.3582 12.6253 20.2637C12.88 20.1693 13.1037 20.0064 13.2718 19.793C13.3346 19.7317 14.4718 18.649 15.7238 18.7649C16.0027 18.7932 16.273 18.8781 16.518 19.0145C16.763 19.1508 16.9776 19.3357 17.1487 19.5579C17.3802 19.5473 17.6111 19.5887 17.8244 19.6792C18.0377 19.7696 18.228 19.9067 18.3814 20.0804C18.7979 20.6064 18.779 21.4437 18.3276 22.5699C18.2994 22.64 18.2509 22.7 18.1884 22.7423C18.1258 22.7846 18.0521 22.8073 17.9766 22.8074L17.9769 22.8062ZM12.4444 21.0877C12.7277 21.4264 13.1182 21.6581 13.5512 21.7444C14.9653 22.0193 16.5474 20.7431 16.5633 20.7318C16.6133 20.6909 16.673 20.6634 16.7366 20.6521C16.8003 20.6408 16.8658 20.6459 16.9268 20.667C17.3186 20.8314 17.651 21.1113 17.8796 21.4695C17.9283 21.3186 17.9455 21.1593 17.93 21.0015C17.9146 20.8438 17.8669 20.6908 17.7899 20.5523C17.5596 20.2573 17.0302 20.3213 17.0245 20.3217C16.9561 20.3308 16.8865 20.3214 16.823 20.2943C16.7595 20.2672 16.7045 20.2236 16.6637 20.1679C16.5547 19.9912 16.4073 19.8413 16.2326 19.7292C16.0578 19.6171 15.8601 19.5458 15.6541 19.5204C14.9005 19.4526 14.067 20.0778 13.8106 20.3247C13.4559 20.7278 12.9736 20.9971 12.4444 21.0877Z" fill="#FAFBFC"/>
</svg>
