<svg width="48" height="48" viewBox="0 0 48 48" fill="none" xmlns="http://www.w3.org/2000/svg">
<circle cx="24" cy="24" r="24" fill="#42526E"/>
<g clip-path="url(#clip0_1_1174)">
<path d="M24.9991 36.1043H24.014C23.926 36.1043 23.8417 36.0694 23.7795 36.0072C23.7173 35.945 23.6823 35.8606 23.6823 35.7726C23.6823 35.6846 23.7173 35.6003 23.7795 35.5381C23.8417 35.4759 23.926 35.4409 24.014 35.4409H24.9991C25.0871 35.4409 25.1715 35.4759 25.2337 35.5381C25.2959 35.6003 25.3308 35.6846 25.3308 35.7726C25.3308 35.8606 25.2959 35.945 25.2337 36.0072C25.1715 36.0694 25.0871 36.1043 24.9991 36.1043Z" fill="#FAFBFC"/>
<path d="M34.887 36.1043H27.321C27.233 36.1043 27.1487 36.0694 27.0865 36.0072C27.0243 35.945 26.9893 35.8606 26.9893 35.7726C26.9893 35.6846 27.0243 35.6003 27.0865 35.5381C27.1487 35.4759 27.233 35.4409 27.321 35.4409H34.887C34.9749 35.4409 35.0593 35.406 35.1215 35.3438C35.1837 35.2816 35.2187 35.1972 35.2187 35.1092V20.0934H13.3268V35.1092C13.3268 35.1972 13.3617 35.2816 13.4239 35.3438C13.4861 35.406 13.5705 35.4409 13.6585 35.4409H18.4084C18.4963 35.4409 18.5807 35.4759 18.6429 35.5381C18.7051 35.6003 18.74 35.6846 18.74 35.7726C18.74 35.8606 18.7051 35.945 18.6429 36.0072C18.5807 36.0694 18.4963 36.1043 18.4084 36.1043H13.6585C13.3946 36.1043 13.1415 35.9995 12.9548 35.8129C12.7682 35.6262 12.6634 35.3731 12.6634 35.1092V19.7617C12.6634 19.6737 12.6983 19.5893 12.7605 19.5271C12.8227 19.4649 12.9071 19.43 12.9951 19.43H35.5504C35.6383 19.43 35.7227 19.4649 35.7849 19.5271C35.8471 19.5893 35.8821 19.6737 35.8821 19.7617V35.1092C35.8821 35.3731 35.7772 35.6262 35.5906 35.8129C35.404 35.9995 35.1509 36.1043 34.887 36.1043Z" fill="#FAFBFC"/>
<path d="M21.6921 36.1043H20.7302C20.6422 36.1043 20.5579 36.0694 20.4957 36.0072C20.4334 35.945 20.3985 35.8606 20.3985 35.7726C20.3985 35.6846 20.4334 35.6003 20.4957 35.5381C20.5579 35.4759 20.6422 35.4409 20.7302 35.4409H21.6921C21.7801 35.4409 21.8645 35.4759 21.9267 35.5381C21.9889 35.6003 22.0238 35.6846 22.0238 35.7726C22.0238 35.8606 21.9889 35.945 21.9267 36.0072C21.8645 36.0694 21.7801 36.1043 21.6921 36.1043Z" fill="#FAFBFC"/>
<path d="M35.5504 20.0935H12.9951C12.9071 20.0935 12.8227 20.0586 12.7605 19.9964C12.6983 19.9341 12.6634 19.8498 12.6634 19.7618V15.7815C12.6634 15.5176 12.7682 15.2644 12.9548 15.0778C13.1415 14.8912 13.3946 14.7864 13.6585 14.7864H16.8991C16.9871 14.7864 17.0715 14.8213 17.1337 14.8835C17.1959 14.9457 17.2308 15.0301 17.2308 15.1181C17.2308 15.206 17.1959 15.2904 17.1337 15.3526C17.0715 15.4148 16.9871 15.4498 16.8991 15.4498H13.6585C13.5705 15.4498 13.4861 15.4847 13.4239 15.5469C13.3617 15.6091 13.3268 15.6935 13.3268 15.7815V19.4301H35.2187V15.7815C35.2187 15.6935 35.1837 15.6091 35.1215 15.5469C35.0593 15.4847 34.9749 15.4498 34.887 15.4498H31.6463C31.5583 15.4498 31.474 15.4148 31.4118 15.3526C31.3496 15.2904 31.3146 15.206 31.3146 15.1181C31.3146 15.0301 31.3496 14.9457 31.4118 14.8835C31.474 14.8213 31.5583 14.7864 31.6463 14.7864H34.887C35.1509 14.7864 35.404 14.8912 35.5906 15.0778C35.7772 15.2644 35.8821 15.5176 35.8821 15.7815V19.7618C35.8821 19.8498 35.8471 19.9341 35.7849 19.9964C35.7227 20.0586 35.6383 20.0935 35.5504 20.0935Z" fill="#FAFBFC"/>
<path d="M29.4107 15.4498H19.1347C19.0468 15.4498 18.9624 15.4148 18.9002 15.3526C18.838 15.2904 18.803 15.206 18.803 15.1181C18.803 15.0301 18.838 14.9457 18.9002 14.8835C18.9624 14.8213 19.0468 14.7864 19.1347 14.7864H29.4107C29.4986 14.7864 29.583 14.8213 29.6452 14.8835C29.7074 14.9457 29.7423 15.0301 29.7423 15.1181C29.7423 15.206 29.7074 15.2904 29.6452 15.3526C29.583 15.4148 29.4986 15.4498 29.4107 15.4498Z" fill="#FAFBFC"/>
<path d="M31.3428 17.35H29.7151C29.5466 17.3497 29.385 17.2826 29.2658 17.1634C29.1466 17.0442 29.0795 16.8827 29.0793 16.7141V13.5215C29.0795 13.353 29.1466 13.1914 29.2658 13.0722C29.385 12.953 29.5466 12.8859 29.7151 12.8857H31.3428C31.5114 12.8859 31.673 12.9529 31.7922 13.0721C31.9114 13.1913 31.9785 13.353 31.9786 13.5215V16.7141C31.9785 16.8827 31.9114 17.0443 31.7922 17.1635C31.673 17.2827 31.5114 17.3498 31.3428 17.35ZM29.7427 16.6866H31.3152V13.5491H29.7427V16.6866Z" fill="#FAFBFC"/>
<path d="M18.8303 17.35H17.2026C17.034 17.3498 16.8724 17.2827 16.7532 17.1635C16.634 17.0443 16.5669 16.8827 16.5668 16.7141V13.5215C16.5669 13.353 16.634 13.1913 16.7532 13.0721C16.8724 12.9529 17.034 12.8859 17.2026 12.8857H18.8303C18.9988 12.8859 19.1604 12.953 19.2796 13.0722C19.3988 13.1914 19.4659 13.353 19.4661 13.5215V16.7141C19.4659 16.8827 19.3988 17.0442 19.2796 17.1634C19.1604 17.2826 18.9988 17.3497 18.8303 17.35ZM17.2302 16.6866H18.8027V13.5491H17.2302V16.6866Z" fill="#FAFBFC"/>
<path d="M22.7353 25.0137H20.8473C20.6968 25.0135 20.5526 24.9537 20.4462 24.8473C20.3398 24.7409 20.2799 24.5966 20.2798 24.4461V22.5581C20.2798 22.4076 20.3397 22.2633 20.4461 22.1569C20.5525 22.0505 20.6968 21.9907 20.8473 21.9906H22.7353C22.8858 21.9907 23.0301 22.0505 23.1365 22.1569C23.2429 22.2633 23.3027 22.4076 23.3028 22.5581V24.4461C23.3026 24.5966 23.2428 24.7409 23.1364 24.8473C23.03 24.9537 22.8858 25.0135 22.7353 25.0137ZM20.9441 24.3503H22.6404V22.654H20.9431L20.9441 24.3503Z" fill="#FAFBFC"/>
<path d="M27.6982 25.0137H25.8101C25.6597 25.0135 25.5154 24.9537 25.409 24.8473C25.3026 24.7409 25.2428 24.5966 25.2426 24.4461V22.5581C25.2427 22.4076 25.3025 22.2633 25.4089 22.1569C25.5154 22.0505 25.6597 21.9907 25.8101 21.9906H27.6982C27.8486 21.9907 27.9929 22.0505 28.0994 22.1569C28.2058 22.2633 28.2656 22.4076 28.2657 22.5581V24.4461C28.2655 24.5966 28.2057 24.7409 28.0993 24.8473C27.9929 24.9537 27.8486 25.0135 27.6982 25.0137ZM25.907 24.3503H27.6033V22.654H25.906L25.907 24.3503Z" fill="#FAFBFC"/>
<path d="M32.661 25.0137H30.774C30.6235 25.0135 30.4793 24.9537 30.3729 24.8473C30.2665 24.7409 30.2066 24.5966 30.2065 24.4461V22.5581C30.2065 22.4076 30.2664 22.2633 30.3728 22.1569C30.4792 22.0505 30.6235 21.9907 30.774 21.9906H32.662C32.8123 21.991 32.9563 22.051 33.0625 22.1574C33.1686 22.2637 33.2284 22.4078 33.2285 22.5581V24.4461C33.2283 24.5966 33.1684 24.7408 33.062 24.8472C32.9556 24.9535 32.8114 25.0134 32.661 25.0137ZM30.8698 24.3503H32.5651V22.654H30.8688L30.8698 24.3503Z" fill="#FAFBFC"/>
<path d="M17.7715 29.3224H15.8845C15.734 29.3222 15.5898 29.2623 15.4835 29.1559C15.3771 29.0495 15.3172 28.9053 15.317 28.7549V26.8669C15.3171 26.7164 15.377 26.5721 15.4834 26.4656C15.5897 26.3592 15.734 26.2993 15.8845 26.299H17.7715C17.922 26.2992 18.0663 26.3591 18.1727 26.4655C18.2791 26.572 18.3389 26.7164 18.339 26.8669V28.7549C18.3389 28.9054 18.279 29.0496 18.1726 29.156C18.0662 29.2624 17.922 29.3222 17.7715 29.3224ZM15.9803 28.659H17.6766V26.9624H15.9803V28.659Z" fill="#FAFBFC"/>
<path d="M22.7353 29.3224H20.8473C20.6968 29.3222 20.5526 29.2624 20.4462 29.156C20.3398 29.0496 20.2799 28.9054 20.2798 28.7549V26.8669C20.2798 26.7164 20.3397 26.572 20.4461 26.4655C20.5525 26.3591 20.6968 26.2992 20.8473 26.299H22.7353C22.8858 26.2992 23.0301 26.3591 23.1365 26.4655C23.2429 26.572 23.3027 26.7164 23.3028 26.8669V28.7549C23.3026 28.9054 23.2428 29.0496 23.1364 29.156C23.03 29.2624 22.8858 29.3222 22.7353 29.3224ZM20.9441 28.659H22.6404V26.9624H20.9431L20.9441 28.659Z" fill="#FAFBFC"/>
<path d="M27.6982 29.3224H25.8101C25.6597 29.3222 25.5154 29.2624 25.409 29.156C25.3026 29.0496 25.2428 28.9054 25.2426 28.7549V26.8669C25.2427 26.7164 25.3025 26.572 25.4089 26.4655C25.5153 26.3591 25.6596 26.2992 25.8101 26.299H27.6982C27.8487 26.2992 27.993 26.3591 28.0994 26.4655C28.2058 26.572 28.2656 26.7164 28.2657 26.8669V28.7549C28.2655 28.9054 28.2057 29.0496 28.0993 29.156C27.9929 29.2624 27.8486 29.3222 27.6982 29.3224ZM25.907 28.659H27.6033V26.9624H25.906L25.907 28.659Z" fill="#FAFBFC"/>
<path d="M32.661 29.3224H30.774C30.6235 29.3222 30.4793 29.2624 30.3729 29.156C30.2665 29.0496 30.2066 28.9054 30.2065 28.7549V26.8669C30.2065 26.7164 30.2664 26.572 30.3728 26.4655C30.4792 26.3591 30.6235 26.2992 30.774 26.299H32.662C32.8123 26.2995 32.9563 26.3596 33.0625 26.466C33.1687 26.5724 33.2284 26.7166 33.2285 26.8669V28.7549C33.2283 28.9053 33.1684 29.0495 33.062 29.1559C32.9556 29.2623 32.8114 29.3222 32.661 29.3224ZM30.8698 28.659H32.5651V26.9624H30.8688L30.8698 28.659Z" fill="#FAFBFC"/>
<path d="M17.7715 33.6312H15.8845C15.7339 33.631 15.5895 33.5709 15.4831 33.4644C15.3767 33.3578 15.317 33.2133 15.317 33.0627V31.1757C15.3171 31.0252 15.377 30.881 15.4834 30.7746C15.5898 30.6682 15.734 30.6083 15.8845 30.6082H17.7715C17.922 30.6082 18.0663 30.6681 18.1727 30.7745C18.2791 30.8809 18.3389 31.0252 18.339 31.1757V33.0627C18.3391 33.2133 18.2794 33.3578 18.173 33.4645C18.0665 33.5711 17.9221 33.631 17.7715 33.6312ZM15.9803 32.9678H17.6766V31.2715H15.9803V32.9678Z" fill="#FAFBFC"/>
<path d="M22.7353 33.6312H20.8473C20.6966 33.631 20.5522 33.5711 20.4458 33.4645C20.3394 33.3578 20.2797 33.2133 20.2798 33.0627V31.1757C20.2798 31.0252 20.3397 30.8809 20.4461 30.7745C20.5525 30.6681 20.6968 30.6082 20.8473 30.6082H22.7353C22.8858 30.6082 23.0301 30.6681 23.1365 30.7745C23.2429 30.8809 23.3027 31.0252 23.3028 31.1757V33.0627C23.3029 33.2133 23.2432 33.3578 23.1368 33.4645C23.0303 33.5711 22.8859 33.631 22.7353 33.6312ZM20.9441 32.9678H22.6404V31.2715H20.9431L20.9441 32.9678Z" fill="#FAFBFC"/>
<path d="M27.6982 33.6312H25.8101C25.6595 33.631 25.5151 33.5711 25.4087 33.4645C25.3023 33.3578 25.2425 33.2133 25.2426 33.0627V31.1757C25.2427 31.0252 25.3025 30.8809 25.4089 30.7745C25.5154 30.6681 25.6597 30.6082 25.8101 30.6082H27.6982C27.8486 30.6082 27.993 30.6681 28.0994 30.7745C28.2058 30.8809 28.2656 31.0252 28.2657 31.1757V33.0627C28.2658 33.2133 28.206 33.3578 28.0996 33.4645C27.9932 33.5711 27.8488 33.631 27.6982 33.6312ZM25.907 32.9678H27.6033V31.2715H25.906L25.907 32.9678Z" fill="#FAFBFC"/>
</g>
<defs>
<clipPath id="clip0_1_1174">
<rect width="24.5455" height="24.5455" fill="white" transform="translate(12 12)"/>
</clipPath>
</defs>
</svg>
