<svg width="240" height="40" viewBox="0 0 240 40" fill="none" xmlns="http://www.w3.org/2000/svg">
<path d="M166.073 26.2235C166.878 25.8124 167.618 25.0698 168.297 23.992L172.364 25.9883C171.517 27.6587 170.267 28.9198 168.615 29.7698C166.962 30.6198 165.177 31.0438 163.257 31.0438C161.845 31.0438 160.51 30.8105 159.255 30.342C157.998 29.8753 156.897 29.1938 155.95 28.3031C155.003 27.4124 154.255 26.3346 153.705 25.0735C153.155 23.8124 152.88 22.3753 152.88 20.7605C152.88 19.3438 153.135 18.0124 153.642 16.7661C154.15 15.5198 154.857 14.4364 155.76 13.5161C156.665 12.5957 157.758 11.8735 159.042 11.3494C160.327 10.8253 161.732 10.5642 163.257 10.5642C164.81 10.5642 166.215 10.8327 167.472 11.3716C168.729 11.9105 169.802 12.6531 170.692 13.6031C171.582 14.5531 172.259 15.692 172.724 17.0235C173.19 18.355 173.424 19.8272 173.424 21.442V22.2068H158.852C158.965 23.5661 159.467 24.679 160.357 25.542C161.247 26.4068 162.312 26.8383 163.554 26.8383C164.428 26.8401 165.268 26.6346 166.073 26.2235ZM160.333 15.9198C159.57 16.5994 159.09 17.5346 158.893 18.7235H167.407C167.182 17.3642 166.673 16.3864 165.882 15.792C165.092 15.1976 164.202 14.8994 163.215 14.8994C162.055 14.9013 161.095 15.2401 160.333 15.9198Z" fill="#A5ADBA"/>
<path d="M175.201 16.4731C175.681 15.1991 176.323 14.1213 177.128 13.2435C177.933 12.3657 178.878 11.6991 179.966 11.2472C181.053 10.7935 182.218 10.5676 183.46 10.5676C184.648 10.5676 185.748 10.8009 186.765 11.2694C187.782 11.7361 188.657 12.3676 189.39 13.1602L189.475 13.1176V0.115723H195.405V30.5805H189.856L189.686 28.4565L189.601 28.4139C188.951 29.1213 188.104 29.7379 187.059 30.262C186.014 30.7861 184.856 31.0472 183.586 31.0472C182.371 31.0472 181.214 30.8268 180.113 30.3879C179.011 29.949 178.046 29.2898 177.211 28.412C176.379 27.5342 175.714 26.4639 175.221 25.2046C174.726 23.9435 174.479 22.4787 174.479 20.8065C174.481 19.1916 174.721 17.7472 175.201 16.4731ZM181.745 24.8861C182.578 25.9065 183.673 26.4157 185.028 26.4157C186.383 26.4157 187.463 25.8991 188.268 24.8657C189.073 23.8324 189.475 22.4657 189.475 20.7657C189.475 19.0657 189.058 17.7139 188.225 16.7083C187.393 15.7028 186.326 15.2009 185.028 15.2009C183.588 15.2009 182.473 15.7176 181.681 16.7509C180.891 17.7842 180.496 19.1231 180.496 20.7657C180.496 22.4916 180.913 23.8657 181.745 24.8861Z" fill="#A5ADBA"/>
<path d="M209.193 34.9772C209.8 34.679 210.287 34.2698 210.655 33.7457C211.022 33.2216 211.282 32.6124 211.438 31.9179C211.593 31.2235 211.67 30.4809 211.67 29.6864V28.7087C211.642 28.7087 211.62 28.7012 211.607 28.6864C211.594 28.6716 211.572 28.6661 211.545 28.6661C210.924 29.2883 210.119 29.842 209.13 30.3235C208.142 30.805 207.04 31.0457 205.825 31.0457C204.583 31.0457 203.41 30.8253 202.31 30.3864C201.208 29.9476 200.248 29.3031 199.43 28.4531C198.61 27.6031 197.955 26.542 197.46 25.2661C196.966 23.992 196.718 22.5179 196.718 20.8475C196.718 19.2327 196.951 17.7957 197.418 16.5346C197.883 15.2735 198.52 14.1975 199.323 13.3049C200.126 12.4124 201.06 11.7327 202.118 11.2661C203.178 10.7994 204.3 10.5642 205.486 10.5642C206.868 10.5642 208.076 10.8198 209.108 11.329C210.138 11.8383 211.05 12.5179 211.84 13.3679H211.925L212.052 11.0309H217.602V27.942C217.602 29.1309 217.574 30.0661 217.517 30.7457C217.46 31.4253 217.334 32.1198 217.137 32.8272C216.544 35.0087 215.399 36.729 213.706 37.9901C212.012 39.2513 209.879 39.8809 207.31 39.8809C206.124 39.8809 205.05 39.7679 204.09 39.5401C203.13 39.3142 202.262 39.0235 201.485 38.6698C200.708 38.3161 200.023 37.9124 199.43 37.4587C198.838 37.005 198.328 36.5661 197.905 36.142L200.785 32.6161C201.633 33.5216 202.62 34.2161 203.75 34.6975C204.88 35.179 205.938 35.4198 206.927 35.4198C207.83 35.4235 208.585 35.2735 209.193 34.9772ZM203.94 24.9068C204.773 25.9124 205.868 26.4142 207.223 26.4142C208.578 26.4142 209.658 25.8976 210.463 24.8642C211.268 23.8309 211.67 22.4642 211.67 20.7642C211.67 19.0642 211.253 17.7124 210.42 16.7068C209.588 15.7012 208.521 15.1994 207.223 15.1994C205.783 15.1994 204.668 15.7235 203.876 16.7716C203.086 17.8198 202.689 19.1661 202.689 20.8087C202.69 22.5346 203.106 23.9012 203.94 24.9068Z" fill="#A5ADBA"/>
<path d="M231.938 26.2235C232.743 25.8124 233.483 25.0698 234.163 23.992L238.23 25.9883C237.382 27.6587 236.133 28.9198 234.48 29.7698C232.828 30.6198 231.043 31.0438 229.123 31.0438C227.71 31.0438 226.376 30.8105 225.12 30.342C223.863 29.8753 222.763 29.1938 221.816 28.3031C220.87 27.4105 220.121 26.3346 219.571 25.0735C219.02 23.8124 218.745 22.3753 218.745 20.7605C218.745 19.3438 219 18.0124 219.508 16.7661C220.016 15.5198 220.723 14.4364 221.625 13.5161C222.53 12.5957 223.623 11.8735 224.908 11.3494C226.193 10.8253 227.598 10.5642 229.123 10.5642C230.675 10.5642 232.08 10.8327 233.337 11.3716C234.595 11.9105 235.667 12.6531 236.557 13.6031C237.447 14.5531 238.125 15.692 238.59 17.0235C239.055 18.355 239.289 19.8272 239.289 21.442V22.2068H224.718C224.83 23.5661 225.333 24.679 226.222 25.542C227.112 26.4068 228.177 26.8383 229.42 26.8383C230.293 26.8401 231.133 26.6346 231.938 26.2235ZM226.2 15.9198C225.438 16.5994 224.958 17.5346 224.76 18.7235H233.275C233.049 17.3642 232.54 16.3864 231.75 15.792C230.96 15.1976 230.07 14.8994 229.082 14.8994C227.923 14.9013 226.961 15.2401 226.2 15.9198Z" fill="#A5ADBA"/>
<path d="M47.9847 27.1003C47.6302 27.8559 47.0967 28.5262 46.3859 29.1096C45.6751 29.6929 44.7945 30.1651 43.7422 30.5207C42.6899 30.8762 41.4825 31.0559 40.1182 31.0559C39.1231 31.0559 38.1927 30.9559 37.325 30.7559C36.4573 30.5559 35.6616 30.3003 34.9379 29.9855C34.2124 29.6725 33.5736 29.3225 33.0198 28.9374C32.4659 28.5522 32.0044 28.1596 31.6333 27.7614L34.4893 24.2114C35.285 25.0374 36.173 25.6874 37.1533 26.1577C38.1336 26.6281 39.1213 26.8633 40.1164 26.8633C40.9398 26.8633 41.573 26.6929 42.0142 26.3503C42.4554 26.0077 42.6751 25.6096 42.6751 25.1522C42.6751 24.554 42.3336 24.0966 41.6524 23.7837C41.3404 23.6133 40.9914 23.4707 40.6074 23.3559C40.2234 23.2411 39.8321 23.1133 39.4351 22.9707L38.1133 22.5855C37.517 22.4151 37.0111 22.2429 36.5995 22.0725C36.1878 21.9022 35.7964 21.717 35.4271 21.517C34.3471 20.9466 33.5662 20.2985 33.0825 19.5707C32.5988 18.8429 32.357 17.8818 32.357 16.6837C32.357 15.9133 32.5342 15.1577 32.8905 14.417C33.245 13.6762 33.7638 13.0059 34.4468 12.4077C35.1299 11.8096 35.9681 11.3318 36.9613 10.9744C37.9564 10.6188 39.1065 10.4392 40.4155 10.4392C41.4382 10.4392 42.3484 10.5392 43.1441 10.7392C43.9398 10.9392 44.6431 11.1818 45.2542 11.467C45.8653 11.7522 46.3988 12.0725 46.853 12.4299C47.3071 12.7855 47.7059 13.1077 48.0474 13.3929L45.1914 16.7707C44.6228 16.2003 43.8991 15.7022 43.0167 15.2744C42.1361 14.8466 41.2407 14.6337 40.3305 14.6337C39.6493 14.6337 39.0807 14.7837 38.6247 15.0818C38.1705 15.3818 37.9416 15.7725 37.9416 16.2577C37.9416 16.6281 38.0911 16.9355 38.3884 17.1781C38.6874 17.4207 39.0345 17.6133 39.4333 17.7559C39.8025 17.8985 40.1791 18.0337 40.5631 18.1614C40.9471 18.2892 41.381 18.4244 41.8628 18.567L43.2271 18.9948C43.9656 19.2225 44.7059 19.5299 45.4444 19.9151C46.1828 20.3003 46.8234 20.7911 47.3625 21.3911C48.1305 22.2466 48.5145 23.3874 48.5145 24.8114C48.5182 25.5818 48.3391 26.3448 47.9847 27.1003Z" fill="#A5ADBA"/>
<path d="M49.371 16.6007C49.8824 15.347 50.608 14.2636 51.5458 13.3507C52.4836 12.4377 53.6135 11.7247 54.9353 11.2118C56.2572 10.6988 57.7138 10.4414 59.3052 10.4414C60.8966 10.4414 62.3458 10.6988 63.6547 11.2118C64.9618 11.7247 66.0842 12.4377 67.0221 13.3507C67.9599 14.2636 68.6855 15.347 69.1969 16.6007C69.7083 17.8544 69.9649 19.2229 69.9649 20.7062C69.9649 22.1896 69.7083 23.5636 69.1969 24.8321C68.6855 26.1007 67.9599 27.1914 67.0221 28.1044C66.0842 29.0173 64.9618 29.7358 63.6547 30.2636C62.3476 30.7914 60.8984 31.0544 59.3052 31.0544C57.7138 31.0544 56.2572 30.7914 54.9353 30.2636C53.6135 29.7358 52.4836 29.0155 51.5458 28.1044C50.608 27.1914 49.8824 26.1007 49.371 24.8321C48.8596 23.5636 48.603 22.1877 48.603 20.7062C48.603 19.2229 48.8578 17.8544 49.371 16.6007ZM62.715 24.7896C63.5384 23.721 63.9519 22.3599 63.9519 20.7062C63.9519 19.0525 63.5403 17.7062 62.715 16.6655C61.8916 15.6247 60.7544 15.1044 59.3052 15.1044C57.8559 15.1044 56.7113 15.6247 55.8732 16.6655C55.035 17.7062 54.616 19.0525 54.616 20.7062C54.616 22.3599 55.035 23.721 55.8732 24.7896C56.7113 25.8581 57.8559 26.3933 59.3052 26.3933C60.7526 26.3933 61.8898 25.8581 62.715 24.7896Z" fill="#A5ADBA"/>
<path d="M73.4151 28.8524C71.7941 27.3838 70.9855 25.2098 70.9855 22.3301V10.9116H76.9966V22.5857C76.9966 23.869 77.2883 24.8246 77.8698 25.4505C78.4514 26.0764 79.2563 26.3913 80.2791 26.3913C81.2446 26.3913 82.0477 26.0987 82.6883 25.5153C83.3289 24.932 83.6483 23.9542 83.6483 22.5857V10.9116H89.6594V22.2875C89.6594 23.8264 89.3972 25.1524 88.8711 26.2653C88.3449 27.3764 87.6563 28.2894 86.8034 29.0024C85.9505 29.7153 84.9775 30.2357 83.8828 30.5635C82.788 30.8912 81.6729 31.0561 80.5357 31.0561C77.4083 31.0542 75.036 30.3209 73.4151 28.8524Z" fill="#A5ADBA"/>
<path d="M101.959 16.0007C101.433 15.8858 100.971 15.8303 100.572 15.8303C99.2653 15.8303 98.32 16.2858 97.7367 17.1988C97.1533 18.1118 96.8634 19.2951 96.8634 20.7488V30.584H90.8524V10.9118H96.4794L96.6068 13.3488H96.6917C97.4874 12.3507 98.333 11.6173 99.2284 11.147C100.124 10.6766 101.027 10.4414 101.935 10.4414C102.446 10.4414 102.923 10.4988 103.364 10.6118C103.805 10.7266 104.224 10.8821 104.621 11.0821L103.513 16.471C103.004 16.2729 102.485 16.1155 101.959 16.0007Z" fill="#A5ADBA"/>
<path d="M110.038 23.1864C110.294 23.8993 110.627 24.4901 111.04 24.9605C111.452 25.4308 111.935 25.7864 112.489 26.029C113.043 26.2716 113.619 26.3919 114.215 26.3919C115.181 26.3919 115.971 26.1845 116.582 25.7716C117.193 25.3586 117.827 24.6382 118.48 23.6123L122.658 26.0493C121.692 27.6753 120.463 28.9142 118.969 29.7697C117.478 30.6253 115.822 31.053 114.003 31.053C112.639 31.053 111.332 30.8105 110.08 30.3253C108.83 29.8401 107.728 29.1493 106.775 28.2512C105.823 27.353 105.062 26.2697 104.496 25.0012C103.927 23.7327 103.643 22.2993 103.643 20.703C103.643 19.1068 103.927 17.6734 104.496 16.4049C105.064 15.1364 105.825 14.0605 106.775 13.1753C107.728 12.2919 108.828 11.6142 110.08 11.1438C111.33 10.6734 112.639 10.4382 114.003 10.4382C115.822 10.4382 117.478 10.866 118.969 11.7216C120.461 12.5771 121.691 13.8179 122.658 15.4419L118.48 17.879C118.111 17.2512 117.592 16.6308 116.924 16.0179C116.256 15.4049 115.353 15.0993 114.217 15.0993C112.853 15.0993 111.751 15.6197 110.913 16.6605C110.075 17.7012 109.655 19.0475 109.655 20.7012C109.654 21.6475 109.781 22.4734 110.038 23.1864Z" fill="#A5ADBA"/>
<path d="M135.511 26.2007C136.322 25.7877 137.068 25.0396 137.749 23.9562L141.842 25.9655C140.989 27.647 139.732 28.9155 138.068 29.771C136.405 30.6266 134.609 31.0544 132.676 31.0544C131.254 31.0544 129.912 30.8192 128.647 30.3488C127.383 29.8784 126.273 29.1951 125.323 28.297C124.372 27.3988 123.617 26.3155 123.063 25.047C122.509 23.7784 122.232 22.3321 122.232 20.7062C122.232 19.2803 122.489 17.9414 123 16.6858C123.511 15.4321 124.222 14.3414 125.132 13.4136C126.043 12.4877 127.143 11.7599 128.437 11.2321C129.729 10.7044 131.143 10.4414 132.679 10.4414C134.243 10.4414 135.657 10.7118 136.922 11.2544C138.187 11.7951 139.267 12.5451 140.162 13.4988C141.057 14.4544 141.739 15.6007 142.207 16.9414C142.676 18.2821 142.911 19.7636 142.911 21.3896V22.1599H128.245C128.359 23.5284 128.863 24.647 129.759 25.5173C130.654 26.3877 131.727 26.821 132.979 26.821C133.855 26.821 134.703 26.6136 135.511 26.2007ZM129.735 15.8303C128.967 16.5136 128.485 17.4562 128.286 18.6525H136.855C136.628 17.284 136.117 16.3007 135.321 15.7025C134.526 15.1044 133.63 14.8044 132.635 14.8044C131.468 14.8044 130.503 15.147 129.735 15.8303Z" fill="#A5ADBA"/>
<path d="M31.8501 21.3854C31.8501 19.7613 31.6156 18.2798 31.1467 16.9391C30.6778 15.6002 29.9965 14.452 29.1011 13.4983C28.2058 12.5428 27.1276 11.7965 25.863 11.2539C24.5984 10.7131 23.1861 10.4409 21.6224 10.4409C20.0882 10.4409 18.6741 10.7039 17.3818 11.2317C16.2667 11.6872 15.2956 12.2909 14.4648 13.0428L13.2168 19.1131L11.4205 18.4131C11.2636 19.1502 11.1824 19.9113 11.1824 20.7002C11.1824 22.3243 11.4593 23.7706 12.0131 25.0391C12.567 26.3076 13.3202 27.3909 14.271 28.2872C15.2236 29.1854 16.3313 29.8687 17.5941 30.3391C18.8587 30.8094 20.2008 31.0446 21.6205 31.0446C23.5516 31.0446 25.3498 30.6168 27.0113 29.7631C28.6728 28.9076 29.9301 27.6409 30.783 25.9594L26.6919 23.9502C26.0107 25.0335 25.2648 25.7817 24.4544 26.1946C23.6439 26.6076 22.8002 26.815 21.9196 26.815C20.6698 26.815 19.5971 26.3798 18.7018 25.5113C17.8064 24.6428 17.3024 23.5243 17.1898 22.1557H31.8482V21.3854H31.8501ZM17.2341 18.6502C17.4334 17.4539 17.9153 16.5131 18.6833 15.8298C19.4494 15.1465 20.4168 14.8039 21.5818 14.8039C22.5768 14.8039 23.4704 15.1039 24.2661 15.702C25.0618 16.3002 25.5731 17.2835 25.8002 18.652H17.2341V18.6502Z" fill="#A5ADBA"/>
<path d="M11.1324 16.0003C10.6063 15.8855 10.1447 15.8299 9.7478 15.8299C8.44072 15.8299 7.4955 16.2855 6.91396 17.1984C6.33242 18.1095 6.04073 19.2929 6.04073 20.7466V30.5781H0.0314941V10.9132H5.65673L5.78411 13.3503H5.86903C6.66473 12.3521 7.51026 11.6188 8.40565 11.1484C9.30103 10.6781 10.202 10.4429 11.1121 10.4429C11.6235 10.4429 12.0998 10.5003 12.5392 10.6132C12.9786 10.7281 13.3976 10.8836 13.7964 11.0836L12.6887 16.4688C12.1755 16.2706 11.6567 16.1151 11.1324 16.0003Z" fill="#A5ADBA"/>
</svg>
