<svg width="24" height="25" viewBox="0 0 24 25" fill="none" xmlns="http://www.w3.org/2000/svg">
<rect width="24" height="24" transform="translate(0 0.527344)" fill="white" fill-opacity="0.01"/>
<path fill-rule="evenodd" clip-rule="evenodd" d="M12 18.5273C7.464 18.5273 4.001 14.2673 4.001 12.5273C4.001 10.5263 7.46 6.52734 12.001 6.52734C16.377 6.52734 19.999 10.5003 19.999 12.5273C19.999 14.2673 16.537 18.5273 12.001 18.5273H12ZM12.001 4.52734C6.48 4.52734 2 9.36834 2 12.5273C2 15.6133 6.576 20.5273 12 20.5273C17.423 20.5273 22 15.6133 22 12.5273C22 9.36834 17.52 4.52734 12 4.52734" fill="#42526E"/>
<path fill-rule="evenodd" clip-rule="evenodd" d="M11.977 14.5113C10.874 14.5113 9.977 13.6143 9.977 12.5113C9.977 11.4083 10.874 10.5113 11.977 10.5113C13.081 10.5113 13.977 11.4083 13.977 12.5113C13.977 13.6143 13.081 14.5113 11.977 14.5113ZM11.977 8.51134C9.771 8.51134 7.977 10.3053 7.977 12.5113C7.977 14.7173 9.771 16.5113 11.977 16.5113C14.184 16.5113 15.977 14.7173 15.977 12.5113C15.977 10.3053 14.184 8.51134 11.977 8.51134Z" fill="#42526E"/>
</svg>
